<?xml version="1.0" standalone="no"?>
<!DOCTYPE svg PUBLIC "-//W3C//DTD SVG 20010904//EN"
 "http://www.w3.org/TR/2001/REC-SVG-20010904/DTD/svg10.dtd">
<svg version="1.0" xmlns="http://www.w3.org/2000/svg"
 width="1366.000000pt" height="858.000000pt" viewBox="0 0 1366.000000 858.000000"
 preserveAspectRatio="xMidYMid meet">
<metadata>
Created by potrace 1.16, written by Peter Selinger 2001-2019
</metadata>
<g transform="translate(0.000000,858.000000) scale(0.100000,-0.100000)"
fill="#000000" stroke="none">
<path d="M7805 6607 c-63 -30 -82 -51 -65 -72 16 -20 45 -19 77 2 19 12 48 17
113 17 96 1 131 -11 149 -52 11 -23 9 -29 -23 -61 -25 -26 -44 -62 -65 -121
-55 -162 -87 -215 -140 -230 -57 -16 -75 -12 -122 23 -24 18 -73 44 -109 57
-155 56 -428 9 -849 -146 -35 -13 -91 -44 -125 -67 -33 -24 -142 -90 -241
-147 -99 -57 -181 -107 -183 -112 -2 -4 -8 -8 -13 -8 -6 0 -15 -4 -22 -10 -7
-5 -88 -61 -182 -123 -170 -113 -537 -386 -734 -545 -107 -86 -157 -115 -223
-127 -40 -8 -49 -19 -22 -29 35 -13 88 -4 147 25 34 18 139 67 232 109 94 43
208 96 255 118 111 52 166 71 367 132 320 97 706 157 765 118 13 -8 47 -23 76
-32 28 -10 52 -22 52 -28 0 -6 -10 -25 -23 -42 -13 -17 -42 -69 -65 -116 -22
-47 -63 -111 -89 -143 -95 -116 -91 -107 -92 -220 0 -56 3 -108 8 -116 17 -27
211 -36 211 -10 0 5 -20 23 -44 41 -24 18 -49 41 -55 51 -18 28 4 88 56 154
54 68 154 173 165 173 19 0 28 -81 17 -142 -12 -63 -11 -64 26 -137 34 -69 37
-79 31 -135 -8 -79 1 -93 43 -71 30 15 35 15 87 -3 44 -16 54 -17 54 -6 0 8
10 14 25 14 40 0 30 24 -27 66 -29 22 -59 51 -66 66 -37 78 -33 342 8 515 l22
92 83 46 c46 25 85 45 87 45 3 0 15 -21 27 -47 l22 -48 -19 -62 c-15 -48 -16
-60 -6 -56 9 3 14 -2 14 -12 0 -9 5 -13 10 -10 6 3 10 0 10 -7 0 -7 6 -4 12 7
6 11 15 22 19 25 10 7 14 176 6 225 l-8 40 92 32 91 32 -6 -43 c-8 -49 0 -59
54 -73 33 -9 35 -12 35 -50 0 -28 4 -39 13 -36 7 3 12 -3 12 -15 0 -12 6 -19
15 -18 24 3 57 48 51 71 -2 11 -8 37 -12 58 -5 31 -13 41 -35 49 -46 16 -39
52 21 110 28 26 50 54 50 61 0 6 9 26 20 42 11 17 20 40 20 52 0 16 17 35 58
64 116 84 177 162 253 322 37 79 115 156 184 182 36 14 52 16 86 7 44 -11 81
-1 107 31 22 26 -77 105 -218 175 -160 78 -214 93 -375 99 -122 4 -133 3 -180
-20z"/>
<path d="M3423 4119 c-43 -13 -73 -53 -73 -99 0 -59 58 -100 141 -100 81 0
139 44 139 105 0 81 -98 125 -207 94z"/>
<path d="M6720 4076 l-105 -11 -3 -467 -2 -468 130 0 130 0 0 270 c0 218 3
277 15 299 23 46 69 55 101 20 17 -19 19 -43 24 -264 5 -228 6 -245 26 -272
35 -47 82 -68 149 -68 48 0 125 18 125 30 0 1 -8 17 -17 36 -15 29 -19 72 -23
269 -5 220 -6 238 -28 282 -28 56 -69 84 -144 99 -68 14 -151 -1 -203 -36
l-35 -24 7 159 6 160 -24 -1 c-13 -1 -71 -7 -129 -13z"/>
<path d="M5954 4026 c-125 -29 -204 -88 -239 -180 -34 -90 0 -210 77 -268 18
-13 83 -50 143 -82 154 -81 185 -114 185 -196 0 -81 -83 -125 -159 -85 -37 18
-51 60 -51 146 l0 69 -53 0 c-112 0 -182 -66 -174 -163 9 -105 116 -159 312
-159 236 -1 361 84 373 253 9 134 -42 201 -232 299 -149 76 -186 116 -186 196
0 75 88 111 147 60 26 -23 28 -29 27 -100 l-1 -76 59 0 c66 0 113 16 143 50
15 17 20 36 20 80 0 51 -4 63 -30 90 -57 60 -240 93 -361 66z"/>
<path d="M2525 4013 c-33 -1 -88 -5 -122 -9 l-63 -6 0 -428 0 -428 28 -6 c61
-13 368 -18 427 -7 132 25 241 102 289 204 38 83 49 152 44 283 -6 153 -29
217 -102 290 -95 96 -216 121 -501 107z m235 -120 c40 -36 58 -106 66 -253 6
-112 -5 -256 -26 -331 -6 -20 -21 -48 -35 -63 -20 -22 -32 -26 -80 -26 l-55 0
0 344 c0 266 3 345 13 349 36 15 88 6 117 -20z"/>
<path d="M4248 3827 c-62 -18 -95 -41 -121 -85 l-22 -37 -5 60 -5 60 -45 -3
c-25 -1 -71 -5 -102 -8 l-58 -6 0 -339 0 -339 130 0 130 0 0 270 c0 218 3 277
15 299 23 46 69 55 101 20 17 -19 19 -43 24 -264 5 -228 6 -245 26 -272 35
-47 82 -68 149 -68 48 0 125 18 125 30 0 1 -8 17 -17 36 -15 29 -19 72 -23
269 -5 227 -6 237 -30 285 -20 38 -36 55 -70 72 -57 28 -141 37 -202 20z"/>
<path d="M5053 3830 c-110 -23 -186 -83 -232 -179 -24 -51 -26 -67 -26 -176 0
-111 2 -125 29 -183 48 -103 130 -163 250 -182 118 -19 224 10 303 82 54 51
78 95 99 185 45 191 -32 376 -178 431 -65 24 -184 35 -245 22z m112 -76 c39
-15 49 -62 53 -245 6 -250 -16 -335 -85 -327 -41 5 -62 44 -74 138 -13 93 -6
313 10 369 18 60 51 82 96 65z"/>
<path d="M7779 3830 c-185 -33 -279 -171 -267 -391 10 -185 109 -301 282 -329
128 -20 240 14 319 98 67 72 91 143 91 272 0 86 -5 116 -24 164 -29 76 -89
137 -162 164 -64 24 -174 34 -239 22z m106 -76 c39 -15 49 -62 53 -245 6 -250
-16 -335 -85 -327 -41 5 -62 44 -74 138 -13 93 -6 313 10 369 18 60 51 82 96
65z"/>
<path d="M8830 3831 c-72 -17 -117 -49 -148 -106 -10 -18 -11 -17 -12 11 0 17
-3 44 -6 60 l-6 29 -81 -7 c-45 -3 -92 -7 -104 -7 l-23 -1 0 -465 0 -465 48 0
c26 0 84 3 130 7 l82 6 0 109 0 108 38 -6 c45 -7 152 11 208 36 64 28 118 83
149 152 24 53 29 80 33 168 7 178 -38 301 -128 347 -51 26 -127 36 -180 24z
m-3 -106 c38 -27 48 -78 48 -255 -1 -174 -11 -236 -46 -271 -22 -22 -56 -24
-94 -7 l-25 11 0 211 c0 229 7 282 41 309 26 21 48 22 76 2z"/>
<path d="M10112 3830 c-73 -11 -175 -63 -212 -108 -52 -64 -73 -133 -73 -247
0 -107 17 -170 65 -241 112 -167 460 -174 544 -12 18 35 18 89 0 113 -13 18
-15 18 -54 -17 -72 -65 -196 -74 -246 -19 -21 23 -45 86 -46 119 0 21 4 22 83
22 155 0 247 36 285 110 37 74 27 157 -25 212 -53 56 -201 87 -321 68z m122
-103 c27 -36 28 -132 2 -172 -20 -31 -72 -55 -116 -55 -29 0 -30 1 -30 50 0
163 81 262 144 177z"/>
<path d="M10905 3830 c-146 -23 -225 -94 -225 -200 0 -79 46 -130 187 -209
111 -62 153 -106 153 -159 0 -50 -29 -82 -75 -82 -48 0 -65 28 -65 106 l0 62
-38 7 c-58 9 -128 -12 -158 -48 -22 -26 -25 -38 -21 -72 11 -81 110 -129 267
-129 203 0 319 77 320 212 0 89 -40 138 -182 217 -46 25 -90 52 -98 58 -84 65
-77 174 11 165 43 -4 61 -37 56 -100 -4 -48 -4 -48 32 -54 84 -16 181 41 181
107 0 42 -44 83 -108 102 -66 20 -173 28 -237 17z"/>
<path d="M3360 3523 c0 -259 2 -292 19 -329 20 -43 56 -67 123 -79 43 -8 137
11 144 29 3 7 -2 29 -11 49 -12 30 -15 89 -15 327 l0 290 -130 0 -130 0 0
-287z"/>
<path d="M9426 3306 c-52 -19 -75 -44 -82 -88 -5 -30 -1 -41 24 -69 28 -31 35
-34 103 -37 65 -3 78 -1 109 20 65 44 63 119 -3 163 -35 22 -106 27 -151 11z"/>
<path d="M6133 2463 c-10 -3 -13 -48 -13 -173 0 -93 3 -175 6 -184 4 -10 18
-16 36 -16 23 0 29 4 24 16 -3 9 -6 94 -6 190 0 159 -1 174 -17 173 -10 0 -24
-3 -30 -6z"/>
<path d="M4885 2388 c-8 -29 -30 -108 -49 -175 l-33 -123 27 0 c24 0 29 5 39
45 l11 45 55 0 54 0 8 -42 c8 -39 12 -43 40 -46 l32 -3 -45 170 c-24 94 -44
173 -44 176 0 3 -18 5 -40 5 -39 0 -40 -1 -55 -52z"/>
<path d="M6850 2255 c0 -185 0 -186 -25 -211 -19 -19 -22 -26 -11 -30 32 -12
61 1 78 36 15 29 18 64 18 213 l0 177 -30 0 -30 0 0 -185z"/>
<path d="M5322 2377 c-33 -24 -45 -28 -54 -19 -19 19 -70 14 -95 -10 l-23 -21
0 21 c0 24 -1 25 -24 16 -14 -5 -16 -27 -16 -140 l0 -134 25 0 c25 0 25 1 26
93 1 114 8 141 37 145 21 3 24 0 26 -30 3 -39 56 -22 56 17 0 18 5 25 20 25
19 0 20 -7 20 -112 0 -116 3 -130 32 -141 20 -7 56 17 40 27 -8 5 -12 45 -12
117 l0 109 25 0 c14 0 25 5 25 10 0 6 -11 10 -25 10 -20 0 -25 5 -25 25 0 31
-5 31 -58 -8z"/>
<path d="M5631 2344 c-52 -43 -66 -160 -27 -219 36 -55 136 -56 165 -3 20 36
7 47 -23 19 -31 -30 -76 -25 -93 9 -7 14 -13 50 -13 80 0 69 17 104 52 108 19
2 28 -2 33 -17 3 -12 3 -26 0 -32 -5 -7 3 -9 21 -7 23 2 30 9 32 31 4 37 -21
56 -75 57 -30 0 -50 -7 -72 -26z"/>
<path d="M6292 2354 c-77 -54 -68 -233 14 -264 57 -22 121 -2 142 46 34 73 22
177 -25 213 -31 25 -99 28 -131 5z m99 -36 c14 -26 18 -130 6 -170 -9 -35 -51
-48 -75 -24 -22 22 -24 174 -3 199 20 24 58 21 72 -5z"/>
<path d="M6546 2349 c-18 -14 -26 -30 -26 -50 0 -32 21 -56 89 -101 24 -16 41
-36 41 -47 0 -48 -73 -56 -78 -8 -3 24 -7 28 -30 25 -30 -3 -42 -39 -22 -63
28 -33 120 -30 158 6 47 43 20 101 -69 154 -37 22 -48 55 -25 74 25 21 56 4
56 -30 0 -31 25 -40 48 -17 55 55 -77 108 -142 57z"/>
<path d="M7278 2363 c-16 -4 -18 -19 -18 -139 l0 -134 30 0 30 0 0 94 c0 108
10 146 40 146 15 0 20 -7 20 -24 0 -31 8 -36 38 -25 14 5 22 17 22 33 0 54
-64 75 -107 34 l-23 -21 0 21 c0 22 -2 23 -32 15z"/>
<path d="M7493 2346 c-23 -20 -26 -28 -17 -43 6 -10 21 -19 33 -21 17 -3 21 2
21 23 0 17 8 29 25 37 36 16 55 -4 55 -58 0 -43 -1 -44 -34 -44 -46 0 -94 -18
-106 -40 -39 -73 41 -146 118 -108 23 12 32 12 48 2 34 -23 39 -5 34 119 -5
110 -7 120 -29 138 -35 29 -112 26 -148 -5z"/>
<path d="M7772 2358 c-12 -6 -25 -21 -28 -34 -12 -46 0 -68 55 -105 63 -42 76
-61 61 -89 -20 -38 -91 -14 -76 26 5 12 0 15 -22 12 -23 -2 -27 -8 -27 -33 0
-39 34 -57 95 -51 70 7 113 72 78 119 -7 9 -35 32 -63 50 -53 34 -66 70 -33
90 22 14 48 -7 48 -39 0 -26 27 -33 48 -12 17 17 15 35 -8 58 -22 22 -89 26
-128 8z"/>
<path d="M8148 2355 c-57 -32 -76 -172 -31 -233 38 -50 128 -54 159 -7 23 34
8 52 -21 25 -30 -29 -75 -24 -92 10 -7 14 -13 50 -13 80 0 69 17 104 52 108
19 2 28 -2 33 -17 3 -12 3 -26 0 -32 -5 -7 3 -9 21 -7 35 4 45 40 18 69 -21
23 -86 25 -126 4z"/>
<path d="M8381 2354 c-52 -37 -69 -159 -31 -222 31 -50 93 -66 149 -38 71 37
80 204 14 255 -32 26 -99 28 -132 5z m99 -35 c19 -34 23 -120 8 -164 -11 -35
-17 -40 -43 -40 -42 0 -57 33 -53 121 2 41 9 78 17 88 19 23 58 20 71 -5z"/>
<path d="M8636 2349 c-18 -14 -26 -30 -26 -50 0 -32 21 -56 89 -101 24 -16 41
-36 41 -47 0 -48 -73 -56 -78 -8 -3 21 -9 27 -27 27 -45 0 -43 -64 2 -81 61
-23 138 2 149 48 11 42 -8 76 -60 110 -70 45 -84 73 -47 93 29 15 51 2 51 -31
0 -29 12 -35 44 -23 23 9 19 50 -6 68 -32 23 -100 20 -132 -5z"/>
<path d="M5840 2245 c0 -110 1 -117 25 -140 28 -29 70 -32 103 -9 19 13 24 13
43 0 40 -28 44 -14 41 129 l-3 135 -30 0 -29 0 0 -105 c0 -92 -3 -108 -20
-125 -24 -24 -30 -24 -56 -6 -16 12 -19 29 -22 125 -4 110 -4 111 -28 111 -24
0 -24 0 -24 -115z"/>
<path d="M6980 2255 c0 -128 13 -161 64 -171 22 -4 45 -1 64 8 23 12 32 12 48
2 10 -7 24 -10 29 -6 6 4 9 59 7 140 l-3 132 -30 0 -29 0 0 -108 c0 -95 -2
-111 -19 -126 -22 -20 -56 -14 -66 12 -3 9 -9 63 -12 120 -6 99 -7 102 -30
102 -23 0 -23 -1 -23 -105z"/>
<path d="M2340 2250 c0 -20 7 -20 1120 -20 1113 0 1120 0 1120 20 0 20 -7 20
-1120 20 -1113 0 -1120 0 -1120 -20z"/>
<path d="M9020 2250 c0 -20 7 -20 1115 -20 1108 0 1115 0 1115 20 0 20 -7 20
-1115 20 -1108 0 -1115 0 -1115 -20z"/>
</g>
</svg>
